<?xml version="1.0" encoding="UTF-8"?>
<!-- Do not edit this file with editors other than draw.io -->
<!DOCTYPE svg PUBLIC "-//W3C//DTD SVG 1.1//EN" "http://www.w3.org/Graphics/SVG/1.1/DTD/svg11.dtd">
<svg xmlns="http://www.w3.org/2000/svg" style="background: transparent; background-color: transparent; color-scheme: light dark;" xmlns:xlink="http://www.w3.org/1999/xlink" version="1.1" width="424px" height="484px" viewBox="0 0 424 484" content="&lt;mxfile host=&quot;app.diagrams.net&quot; agent=&quot;Mozilla/5.0 (Windows NT 10.0; Win64; x64) AppleWebKit/537.36 (KHTML, like Gecko) Chrome/146.0.0.0 Safari/537.36&quot; version=&quot;29.6.6&quot; scale=&quot;1&quot; border=&quot;0&quot;&gt;&#10;  &lt;diagram name=&quot;Page-1&quot; id=&quot;19ghnISqs3vIPpVTHrGM&quot;&gt;&#10;    &lt;mxGraphModel dx=&quot;2076&quot; dy=&quot;733&quot; grid=&quot;1&quot; gridSize=&quot;10&quot; guides=&quot;1&quot; tooltips=&quot;1&quot; connect=&quot;1&quot; arrows=&quot;1&quot; fold=&quot;1&quot; page=&quot;1&quot; pageScale=&quot;1&quot; pageWidth=&quot;850&quot; pageHeight=&quot;1100&quot; math=&quot;0&quot; shadow=&quot;0&quot;&gt;&#10;      &lt;root&gt;&#10;        &lt;mxCell id=&quot;0&quot; /&gt;&#10;        &lt;mxCell id=&quot;1&quot; parent=&quot;0&quot; /&gt;&#10;        &lt;mxCell id=&quot;QWlO3I9_uxOhAZzAy-rY-14&quot; connectable=&quot;0&quot; parent=&quot;1&quot; style=&quot;group&quot; value=&quot;&quot; vertex=&quot;1&quot;&gt;&#10;          &lt;mxGeometry height=&quot;483.33&quot; width=&quot;422.33&quot; x=&quot;-636&quot; y=&quot;110&quot; as=&quot;geometry&quot; /&gt;&#10;        &lt;/mxCell&gt;&#10;        &lt;mxCell id=&quot;QWlO3I9_uxOhAZzAy-rY-6&quot; connectable=&quot;0&quot; parent=&quot;QWlO3I9_uxOhAZzAy-rY-14&quot; style=&quot;group;fillColor=none;&quot; value=&quot;&quot; vertex=&quot;1&quot;&gt;&#10;          &lt;mxGeometry height=&quot;483.33&quot; width=&quot;386.32809888888886&quot; x=&quot;35.99190111111112&quot; as=&quot;geometry&quot; /&gt;&#10;        &lt;/mxCell&gt;&#10;        &lt;mxCell id=&quot;QWlO3I9_uxOhAZzAy-rY-8&quot; parent=&quot;QWlO3I9_uxOhAZzAy-rY-6&quot; style=&quot;rounded=0;whiteSpace=wrap;html=1;fillColor=light-dark(#FFFFFF,#FBFBFB);&quot; value=&quot;&quot; vertex=&quot;1&quot;&gt;&#10;          &lt;mxGeometry height=&quot;412.94&quot; width=&quot;422.33&quot; x=&quot;-36.00190111111113&quot; y=&quot;31.27&quot; as=&quot;geometry&quot; /&gt;&#10;        &lt;/mxCell&gt;&#10;        &lt;mxCell id=&quot;QWlO3I9_uxOhAZzAy-rY-5&quot; parent=&quot;QWlO3I9_uxOhAZzAy-rY-6&quot; style=&quot;shape=image;html=1;verticalAlign=top;verticalLabelPosition=bottom;labelBackgroundColor=#ffffff;imageAspect=0;aspect=fixed;image=https://icons.diagrams.net/icon-cache1/Phosphor_Regular_Vol_4-2948/robot-1474.svg;imageBackground=none;fontColor=none;noLabel=1;&quot; value=&quot;&quot; vertex=&quot;1&quot;&gt;&#10;          &lt;mxGeometry height=&quot;275.2947572815533&quot; width=&quot;275.2947572815533&quot; x=&quot;100.08699604938283&quot; y=&quot;100.09154271844659&quot; as=&quot;geometry&quot; /&gt;&#10;        &lt;/mxCell&gt;&#10;        &lt;mxCell id=&quot;QWlO3I9_uxOhAZzAy-rY-11&quot; connectable=&quot;0&quot; parent=&quot;QWlO3I9_uxOhAZzAy-rY-6&quot; style=&quot;group&quot; value=&quot;&quot; vertex=&quot;1&quot;&gt;&#10;          &lt;mxGeometry height=&quot;272.1664077669903&quot; width=&quot;400.4314074074074&quot; x=&quot;-25.04781876543208&quot; y=&quot;140.7757281553398&quot; as=&quot;geometry&quot; /&gt;&#10;        &lt;/mxCell&gt;&#10;        &lt;mxCell id=&quot;QWlO3I9_uxOhAZzAy-rY-13&quot; connectable=&quot;0&quot; parent=&quot;QWlO3I9_uxOhAZzAy-rY-11&quot; style=&quot;group&quot; value=&quot;&quot; vertex=&quot;1&quot;&gt;&#10;          &lt;mxGeometry height=&quot;208.55663430420705&quot; width=&quot;222.64388470899468&quot; x=&quot;-5.594569012345704&quot; as=&quot;geometry&quot; /&gt;&#10;        &lt;/mxCell&gt;&#10;        &lt;mxCell id=&quot;f7tG5BNo41cGtJbJmOPW-28&quot; parent=&quot;QWlO3I9_uxOhAZzAy-rY-13&quot; style=&quot;sketch=0;outlineConnect=0;dashed=0;verticalLabelPosition=bottom;verticalAlign=top;align=center;html=1;fontSize=12;fontStyle=0;aspect=fixed;pointerEvents=1;shape=mxgraph.aws4.magnifying_glass_2;fillStyle=solid;shadow=0;fillColor=light-dark(#FFFFFF,#FFFFFF);&quot; value=&quot;&quot; vertex=&quot;1&quot;&gt;&#10;          &lt;mxGeometry height=&quot;208.55663430420705&quot; width=&quot;208.55663430420705&quot; x=&quot;14.085860017636707&quot; as=&quot;geometry&quot; /&gt;&#10;        &lt;/mxCell&gt;&#10;        &lt;mxCell id=&quot;QWlO3I9_uxOhAZzAy-rY-12&quot; parent=&quot;QWlO3I9_uxOhAZzAy-rY-13&quot; style=&quot;sketch=0;outlineConnect=0;dashed=0;verticalLabelPosition=bottom;verticalAlign=top;align=center;html=1;fontSize=12;fontStyle=0;aspect=fixed;pointerEvents=1;shape=mxgraph.aws4.magnifying_glass_2;fillStyle=solid;shadow=0;fillColor=light-dark(#FFFFFF,#FFFFFF);&quot; value=&quot;&quot; vertex=&quot;1&quot;&gt;&#10;          &lt;mxGeometry height=&quot;208.55663430420705&quot; width=&quot;208.55663430420705&quot; as=&quot;geometry&quot; /&gt;&#10;        &lt;/mxCell&gt;&#10;        &lt;mxCell id=&quot;f7tG5BNo41cGtJbJmOPW-22&quot; parent=&quot;QWlO3I9_uxOhAZzAy-rY-13&quot; style=&quot;sketch=0;outlineConnect=0;dashed=0;verticalLabelPosition=bottom;verticalAlign=top;align=center;html=1;fontSize=12;fontStyle=0;aspect=fixed;pointerEvents=1;shape=mxgraph.aws4.magnifying_glass_2;fillStyle=solid;shadow=0;fillColor=light-dark(#FFFFFF,#040404);&quot; value=&quot;&quot; vertex=&quot;1&quot;&gt;&#10;          &lt;mxGeometry height=&quot;208.55663430420705&quot; width=&quot;208.55663430420705&quot; x=&quot;5.594569012345704&quot; as=&quot;geometry&quot; /&gt;&#10;        &lt;/mxCell&gt;&#10;      &lt;/root&gt;&#10;    &lt;/mxGraphModel&gt;&#10;  &lt;/diagram&gt;&#10;&lt;/mxfile&gt;&#10;"><defs/><g><g data-cell-id="0"><g data-cell-id="1"><g data-cell-id="QWlO3I9_uxOhAZzAy-rY-14"><g transform="translate(0.5,0.5)"/><g data-cell-id="QWlO3I9_uxOhAZzAy-rY-6"><g transform="translate(0.5,0.5)"/><g data-cell-id="QWlO3I9_uxOhAZzAy-rY-8"><g transform="translate(0.5,0.5)"><rect x="-0.01" y="31.27" width="422.33" height="412.94" fill="#ffffff" stroke="#000000" pointer-events="all" style="fill: light-dark(rgb(255, 255, 255), rgb(251, 251, 251)); stroke: light-dark(rgb(0, 0, 0), rgb(255, 255, 255));"/></g></g><g data-cell-id="QWlO3I9_uxOhAZzAy-rY-5"><g><image x="136.08" y="100.09" width="275.29" height="275.29" xlink:href="https://icons.diagrams.net/icon-cache1/Phosphor_Regular_Vol_4-2948/robot-1474.svg" preserveAspectRatio="none"/></g></g><g data-cell-id="QWlO3I9_uxOhAZzAy-rY-11"><g transform="translate(0.5,0.5)"/><g data-cell-id="QWlO3I9_uxOhAZzAy-rY-13"><g transform="translate(0.5,0.5)"/><g data-cell-id="f7tG5BNo41cGtJbJmOPW-28"><g transform="translate(0.5,0.5)"><rect x="19.44" y="140.78" width="208.56" height="208.56" fill="none" stroke="none" pointer-events="all"/><path d="M 213.12 335.48 C 208.69 339.92 200.95 339.92 196.53 335.48 L 150.67 289.62 C 156.96 284.9 162.54 279.32 167.26 273.03 L 213.12 318.89 C 217.69 323.47 217.69 330.91 213.12 335.48 M 28.82 223.93 C 28.82 183.82 61.46 151.19 101.57 151.19 C 141.68 151.19 174.31 183.82 174.31 223.93 C 174.31 264.05 141.68 296.68 101.57 296.68 C 61.46 296.68 28.82 264.05 28.82 223.93 M 219.76 312.25 L 172.56 265.05 C 179.6 252.94 183.7 238.92 183.7 223.93 C 183.7 178.65 146.86 141.8 101.57 141.8 C 56.28 141.8 19.44 178.65 19.44 223.93 C 19.44 269.22 56.28 306.07 101.57 306.07 C 116.56 306.07 130.58 301.97 142.69 294.92 L 189.89 342.12 C 193.88 346.11 199.18 348.31 204.82 348.31 C 210.47 348.31 215.77 346.11 219.76 342.12 C 227.99 333.89 227.99 320.48 219.76 312.25 M 101.57 275.56 C 73.1 275.56 49.94 252.4 49.94 223.93 C 49.94 195.47 73.1 172.31 101.57 172.31 C 130.04 172.31 153.19 195.47 153.19 223.93 C 153.19 252.4 130.04 275.56 101.57 275.56 M 101.57 162.92 C 67.93 162.92 40.56 190.29 40.56 223.93 C 40.56 257.58 67.93 284.95 101.57 284.95 C 135.21 284.95 162.58 257.58 162.58 223.93 C 162.58 190.29 135.21 162.92 101.57 162.92" fill="#ffffff" stroke="none" pointer-events="all" style="fill: rgb(255, 255, 255);"/></g></g><g data-cell-id="QWlO3I9_uxOhAZzAy-rY-12"><g transform="translate(0.5,0.5)"><rect x="5.35" y="140.78" width="208.56" height="208.56" fill="none" stroke="none" pointer-events="all"/><path d="M 199.03 335.48 C 194.61 339.92 186.87 339.92 182.44 335.48 L 136.58 289.62 C 142.87 284.9 148.46 279.32 153.17 273.03 L 199.03 318.89 C 203.61 323.47 203.61 330.91 199.03 335.48 M 14.74 223.93 C 14.74 183.82 47.37 151.19 87.48 151.19 C 127.6 151.19 160.23 183.82 160.23 223.93 C 160.23 264.05 127.6 296.68 87.48 296.68 C 47.37 296.68 14.74 264.05 14.74 223.93 M 205.67 312.25 L 158.47 265.05 C 165.51 252.94 169.62 238.92 169.62 223.93 C 169.62 178.65 132.77 141.8 87.48 141.8 C 42.2 141.8 5.35 178.65 5.35 223.93 C 5.35 269.22 42.2 306.07 87.48 306.07 C 102.47 306.07 116.5 301.97 128.61 294.92 L 175.81 342.12 C 179.79 346.11 185.09 348.31 190.74 348.31 C 196.38 348.31 201.68 346.11 205.67 342.12 C 213.91 333.89 213.91 320.48 205.67 312.25 M 87.48 275.56 C 59.02 275.56 35.86 252.4 35.86 223.93 C 35.86 195.47 59.02 172.31 87.48 172.31 C 115.95 172.31 139.11 195.47 139.11 223.93 C 139.11 252.4 115.95 275.56 87.48 275.56 M 87.48 162.92 C 53.84 162.92 26.47 190.29 26.47 223.93 C 26.47 257.58 53.84 284.95 87.48 284.95 C 121.12 284.95 148.5 257.58 148.5 223.93 C 148.5 190.29 121.12 162.92 87.48 162.92" fill="#ffffff" stroke="none" pointer-events="all" style="fill: rgb(255, 255, 255);"/></g></g><g data-cell-id="f7tG5BNo41cGtJbJmOPW-22"><g transform="translate(0.5,0.5)"><rect x="10.94" y="140.78" width="208.56" height="208.56" fill="none" stroke="none" pointer-events="all"/><path d="M 204.63 335.48 C 200.2 339.92 192.46 339.92 188.04 335.48 L 142.17 289.62 C 148.47 284.9 154.05 279.32 158.77 273.03 L 204.63 318.89 C 209.2 323.47 209.2 330.91 204.63 335.48 M 20.33 223.93 C 20.33 183.82 52.97 151.19 93.08 151.19 C 133.19 151.19 165.82 183.82 165.82 223.93 C 165.82 264.05 133.19 296.68 93.08 296.68 C 52.97 296.68 20.33 264.05 20.33 223.93 M 211.26 312.25 L 164.07 265.05 C 171.11 252.94 175.21 238.92 175.21 223.93 C 175.21 178.65 138.37 141.8 93.08 141.8 C 47.79 141.8 10.94 178.65 10.94 223.93 C 10.94 269.22 47.79 306.07 93.08 306.07 C 108.07 306.07 122.09 301.97 134.2 294.92 L 181.4 342.12 C 185.39 346.11 190.69 348.31 196.33 348.31 C 201.98 348.31 207.27 346.11 211.26 342.12 C 219.5 333.89 219.5 320.48 211.26 312.25 M 93.08 275.56 C 64.61 275.56 41.45 252.4 41.45 223.93 C 41.45 195.47 64.61 172.31 93.08 172.31 C 121.55 172.31 144.7 195.47 144.7 223.93 C 144.7 252.4 121.55 275.56 93.08 275.56 M 93.08 162.92 C 59.44 162.92 32.06 190.29 32.06 223.93 C 32.06 257.58 59.44 284.95 93.08 284.95 C 126.72 284.95 154.09 257.58 154.09 223.93 C 154.09 190.29 126.72 162.92 93.08 162.92" fill="#ffffff" stroke="none" pointer-events="all" style="fill: light-dark(rgb(255, 255, 255), rgb(4, 4, 4));"/></g></g></g></g></g></g></g></g></g></svg>